<mxfile host="65bd71144e">
    <diagram id="CyPARiWlmmfWjoBCSy-r" name="Page-1">
        <mxGraphModel dx="816" dy="655" grid="1" gridSize="10" guides="1" tooltips="1" connect="1" arrows="1" fold="1" page="1" pageScale="1" pageWidth="827" pageHeight="1169" math="0" shadow="0">
            <root>
                <mxCell id="0"/>
                <mxCell id="1" parent="0"/>
                <mxCell id="2" value="" style="shape=image;verticalLabelPosition=bottom;labelBackgroundColor=default;verticalAlign=top;aspect=fixed;imageAspect=0;image=data:image/png,iVBORw0KGgoAAAANSUhEUgAAAh8AAAGdCAYAAACyzRGfAAAAOnRFWHRTb2Z0d2FyZQBNYXRwbG90bGliIHZlcnNpb24zLjEwLjEsIGh0dHBzOi8vbWF0cGxvdGxpYi5vcmcvc2/+5QAAAAlwSFlzAAAPYQAAD2EBqD+naQAAHvpJREFUeJzt3X+Q1PV9P/DX3nEsYO5IgMBx46GndWoiCUlFKMFajfwIdWhpmKYJNoMmk04zpxVv2kTToEc0QcnEOqYUa6fVdpqLtjNFGzNqTxJhmIA/sNQybYgYHE0VLKbc4TGuW26/f+R7Z447uR/uvvd2eTxmbvDz2c++P6997+uz+/Sze/fJFAqFQgAAJFJT7gIAgNOL8AEAJCV8AABJCR8AQFLCBwCQlPABACQlfAAASQkfAEBSE8pdwMl6e3vjlVdeifr6+shkMuUuBwAYgUKhEMeOHYumpqaoqTn1uY1xFz5eeeWVaG5uLncZAMAYvPzyy3HmmWeecptxFz7q6+sj4hfFNzQ0FHXsfD4f//qv/xrLli2Lurq6oo7N28xzGuY5HXOdhnlOo1Tz3N3dHc3Nzf3v46cy7sJH30ctDQ0NJQkfU6ZMiYaGBo1dQuY5DfOcjrlOwzynUep5HslXJnzhFABISvgAAJISPgCApIQPACAp4QMASEr4AACSEj4AgKSEDwAgKeEDAEhK+AAAkhI+AICkhA8AICnhAwBISvgAAJKaUO4CAIDiOfuG7w9YfvG2K8pUyTtz5gMASEr4AACSEj4AgKSEDwAgKeEDAEhK+AAAkhI+AICkhA8AICnhAwBIalThY+PGjXHRRRdFfX19zJw5M1atWhX79+8fsM2ll14amUxmwM8f/dEfFbVoAKByjSp8bN++PVpbW2P37t3R2dkZ+Xw+li1bFj09PQO2+8IXvhCvvvpq/8+mTZuKWjQAULlGdW2XRx99dMDyfffdFzNnzow9e/bEJZdc0r9+ypQp0djYWJwKAYCq8q4uLNfV1RUREdOmTRuw/jvf+U78wz/8QzQ2NsbKlStj/fr1MWXKlCHHyOVykcvl+pe7u7sjIiKfz0c+n3835Q3SN16xx2Ug85yGeU7HXKdhnosjW1sYsHzyfJZqnkczXqZQKBSG32yw3t7e+O3f/u04evRo7Ny5s3/9PffcE2eddVY0NTXFc889F1/+8pdjwYIF8c///M9DjtPe3h4bNmwYtL6jo+MdAwsAML4cP3481qxZE11dXdHQ0HDKbcccPr74xS/GI488Ejt37owzzzzzHbf7wQ9+EJdffnkcOHAgzj333EG3D3Xmo7m5OY4cOTJs8aOVz+ejs7Mzli5dGnV1dUUdm7eZ5zTMczop53pu+2OD1u1rX17SfY4Xenp4J/fHUL0xVA/9smxNIW6Z31v0ee7u7o4ZM2aMKHyM6WOXa665Jh5++OHYsWPHKYNHRMTChQsjIt4xfGSz2chms4PW19XVlaz5Sjk2bzPPaZjndFLMde5EZsj9nk709Ds7uT+GmqehemgoxZ7n0Yw1qvBRKBTi2muvja1bt8YTTzwRLS0tw95n7969ERExe/bs0ewKAKhSowofra2t0dHREQ899FDU19fHoUOHIiJi6tSpMXny5HjhhReio6Mjfuu3fiumT58ezz33XFx//fVxySWXxIc//OGSPAAAoLKMKnxs2bIlIn7xh8R+2b333htXXXVVTJw4MR5//PG48847o6enJ5qbm2P16tXx1a9+tWgFAwCVbdQfu5xKc3NzbN++/V0VBABUN9d2AQCSEj4AgKSEDwAgKeEDAEhK+AAAkhI+AICk3tVVbQEq3dk3fH/Quhdvu2LA8tz2x2LTgl/82/enq0/eZiTjDLVNsWos1jgjqXEs+6Y0xtpT5ebMBwCQlPABACQlfAAASQkfAEBSwgcAkJTwAQAkJXwAAEkJHwBAUsIHAJCU8AEAJCV8AABJCR8AQFLCBwCQlKvaAqeVkVwF9ORtsrXFGSe1SqiR05MzHwBAUsIHAJCU8AEAJCV8AABJCR8AQFLCBwCQlPABACQlfAAASQkfAEBSwgcAkJTwAQAkJXwAAEm5sBwA79rJF6h78bYrylRJ9ajmi/458wEAJCV8AABJCR8AQFLCBwCQlPABACQlfAAASQkfAEBSwgcAkJTwAQAkJXwAAEkJHwBAUsIHAJCU8AEAJOWqtkBJjeTKnCdfAXWo+4xkm9PZeJuPkTyHnL6c+QAAkhI+AICkhA8AICnhAwBISvgAAJISPgCApIQPACAp4QMASGpU4WPjxo1x0UUXRX19fcycOTNWrVoV+/fvH7DNm2++Ga2trTF9+vR4z3veE6tXr47Dhw8XtWgAoHKNKnxs3749WltbY/fu3dHZ2Rn5fD6WLVsWPT09/dtcf/318b3vfS/+6Z/+KbZv3x6vvPJKfPKTnyx64QBAZRrVn1d/9NFHByzfd999MXPmzNizZ09ccskl0dXVFX/zN38THR0d8fGPfzwiIu699974wAc+ELt3745f//VfL17lAEBFelff+ejq6oqIiGnTpkVExJ49eyKfz8eSJUv6tzn//PNjzpw5sWvXrnezKwCgSoz5wnK9vb2xbt26WLx4ccydOzciIg4dOhQTJ06M9773vQO2nTVrVhw6dGjIcXK5XORyuf7l7u7uiIjI5/ORz+fHWt6Q+sYr9rgMZJ7TqJR5ztYWht3m5Mcw1H1Gsk2pZGsKA/4dD8o5H0P13Fie53e6fbz3dCqlek77+rhU77EjkSkUCmN6dF/84hfjkUceiZ07d8aZZ54ZEREdHR1x9dVXDwgTERELFiyIyy67LG6//fZB47S3t8eGDRsGre/o6IgpU6aMpTQAILHjx4/HmjVroqurKxoaGk657ZjOfFxzzTXx8MMPx44dO/qDR0REY2NjvPXWW3H06NEBZz8OHz4cjY2NQ4514403RltbW/9yd3d3NDc3x7Jly4YtfrTy+Xx0dnbG0qVLo66urqhjn07mtj82aN2+9uX9/903z+ufqYlcb2bIbUY69lD3GWr/wxnJOCOpbzyplH4ey/M13mRrCnHL/N5BPV1OJ/drJczzcMdYpfR0KqV6Tvv6udjz3PfJxUiMKnwUCoW49tprY+vWrfHEE09ES0vLgNsvvPDCqKuri23btsXq1asjImL//v3x0ksvxaJFi4YcM5vNRjabHbS+rq6uZM1XyrFPB7kTg198h5rPXG9mwLYjmfOTxx5y3CH2P5yRjFOpPTHe+3ksz9d4dXJPl9PJz/l4qetURtqn472nUyn1c1rseR7NWKMKH62trdHR0REPPfRQ1NfX93+PY+rUqTF58uSYOnVqfP7zn4+2traYNm1aNDQ0xLXXXhuLFi3ymy4AQESMMnxs2bIlIiIuvfTSAevvvffeuOqqqyIi4s///M+jpqYmVq9eHblcLpYvXx5/+Zd/WZRiAYDKN+qPXYYzadKk2Lx5c2zevHnMRQEA1cu1XQCApIQPACAp4QMASEr4AACSEj4AgKSEDwAgKeEDAEhqzFe1hV929g3f7//vbG0hNi049TZjGffdKNY4MF7oaSqZMx8AQFLCBwCQlPABACQlfAAASQkfAEBSwgcAkJTwAQAkJXwAAEkJHwBAUsIHAJCU8AEAJCV8AABJCR8AQFLCBwCQlPABACQlfAAASQkfAEBSwgcAkJTwAQAkJXwAAEkJHwBAUsIHAJCU8AEAJCV8AABJCR8AQFLCBwCQ1IRyF8Dwzr7h+wOWX7ztijJVAgDvnjMfAEBSwgcAkJTwAQAkJXwAAEkJHwBAUsIHAJCU8AEAJCV8AABJCR8AQFLCBwCQlPABACQlfAAASQkfAEBSrmpbJCdfeXasxnrF2qH2f/JYI9lmpGMDwFg58wEAJCV8AABJCR8AQFLCBwCQlPABACQlfAAASQkfAEBSwgcAkNSow8eOHTti5cqV0dTUFJlMJh588MEBt1911VWRyWQG/HziE58oVr0AQIUbdfjo6emJefPmxebNm99xm0984hPx6quv9v9897vffVdFAgDVY9R/Xn3FihWxYsWKU26TzWajsbFxzEUBANWrJNd2eeKJJ2LmzJnxvve9Lz7+8Y/HrbfeGtOnTx9y21wuF7lcrn+5u7s7IiLy+Xzk8/mi1tU3XrHHjYjI1haKMs5QtZ089ki2GWq7kWwzlNE+tmxNYcC/laIUfVFKpeznYirWsVFOldrT481wvVopPZ1KqY6dvj4u1XvsSGQKhcKYH10mk4mtW7fGqlWr+tfdf//9MWXKlGhpaYkXXnghvvKVr8R73vOe2LVrV9TW1g4ao729PTZs2DBofUdHR0yZMmWspQEACR0/fjzWrFkTXV1d0dDQcMptix4+TvbTn/40zj333Hj88cfj8ssvH3T7UGc+mpub48iRI8MWP1r5fD46Oztj6dKlUVdXFxERc9sfG/Z++9qXD1o3kvuV28l1p3qs2ZpC3DK/N9Y/UxO53syo7ltOQz328Wyofh6PKuFYGU6l9vR4M9wxVik9nUqpjp2+fi72PHd3d8eMGTNGFD5K8rHLLzvnnHNixowZceDAgSHDRzabjWw2O2h9XV1dyZrvl8fOnRj+hWSoOkZyv3I7ue7UjzXXm6mIeepTqS92pTxWiqGSemA4ldbT481I+3S893Qqpe61Ys/zaMYq+d/5+NnPfhavv/56zJ49u9S7AgAqwKjPfLzxxhtx4MCB/uWDBw/G3r17Y9q0aTFt2rTYsGFDrF69OhobG+OFF16IL33pS/Erv/IrsXx5ZZ3SBgBKY9Th45lnnonLLrusf7mtrS0iItauXRtbtmyJ5557Lv7u7/4ujh49Gk1NTbFs2bK45ZZbhvxoBQA4/Yw6fFx66aVxqu+oPvZY5X+5DAAoHdd2AQCSEj4AgKSEDwAgKeEDAEhK+AAAkhI+AICkhA8AIKmSX9ulGpx9w/fLXUIyp9Njpfj0DzASznwAAEkJHwBAUsIHAJCU8AEAJCV8AABJCR8AQFLCBwCQlPABACQlfAAASQkfAEBSwgcAkJTwAQAkdVpeWG5u+2ORO5Epdxkl5yJfAIxHznwAAEkJHwBAUsIHAJCU8AEAJCV8AABJCR8AQFLCBwCQlPABACQlfAAASQkfAEBSwgcAkJTwAQAkJXwAAEkJHwBAUsIHAJCU8AEAJCV8AABJCR8AQFLCBwCQlPABACQlfAAASQkfAEBSwgcAkJTwAQAkJXwAAEkJHwBAUsIHAJCU8AEAJCV8AABJCR8AQFLCBwCQlPABACQlfAAASQkfAEBSwgcAkJTwAQAkNerwsWPHjli5cmU0NTVFJpOJBx98cMDthUIhbrrpppg9e3ZMnjw5lixZEs8//3yx6gUAKtyow0dPT0/MmzcvNm/ePOTtmzZtirvuuivuvvvuePLJJ+OMM86I5cuXx5tvvvmuiwUAKt+E0d5hxYoVsWLFiiFvKxQKceedd8ZXv/rV+J3f+Z2IiPj7v//7mDVrVjz44IPx6U9/+t1VCwBUvFGHj1M5ePBgHDp0KJYsWdK/burUqbFw4cLYtWvXkOEjl8tFLpfrX+7u7o6IiHw+H/l8vpjl9Y+XrSkUdVwG6pvfSpvnYvdbqfXVO57qztZW1nM+UpXa0+PNcL06Hnu6nEp1PPX1caneY0ciUygUxvzoMplMbN26NVatWhURET/60Y9i8eLF8corr8Ts2bP7t/vUpz4VmUwmHnjggUFjtLe3x4YNGwat7+joiClTpoy1NAAgoePHj8eaNWuiq6srGhoaTrltUc98jMWNN94YbW1t/cvd3d3R3Nwcy5YtG7b40crn89HZ2Rnrn6mJXG+mqGPztmxNIW6Z31tx87yvfXm5SxiVvn5eunRp1NXVlbuciIiY2/5YuUsoiUrt6fFmuGNsPPZ0OZXqeOrr52LPc98nFyNR1PDR2NgYERGHDx8ecObj8OHD8ZGPfGTI+2Sz2chms4PW19XVlaz5cr2ZyJ3wAlJqlTbPlfpiV8pjZbQq6fkei0rr6fFmpH06nnq6nErda8We59GMVdS/89HS0hKNjY2xbdu2/nXd3d3x5JNPxqJFi4q5KwCgQo36zMcbb7wRBw4c6F8+ePBg7N27N6ZNmxZz5syJdevWxa233hrnnXdetLS0xPr166Opqan/eyEAwOlt1OHjmWeeicsuu6x/ue/7GmvXro377rsvvvSlL0VPT0/84R/+YRw9ejQuvvjiePTRR2PSpEnFqxoAqFijDh+XXnppnOoXZDKZTHzta1+Lr33ta++qMACgOrm2CwCQlPABACQlfAAASQkfAEBSwgcAkJTwAQAkJXwAAEkJHwBAUsIHAJCU8AEAJCV8AABJCR8AQFLCBwCQlPABACQlfAAASQkfAEBSwgcAkJTwAQAkJXwAAEkJHwBAUsIHAJCU8AEAJCV8AABJCR8AQFLCBwCQlPABACQlfAAASQkfAEBSwgcAkJTwAQAkJXwAAEkJHwBAUsIHAJCU8AEAJCV8AABJCR8AQFLCBwCQlPABACQlfAAASQkfAEBSwgcAkJTwAQAkJXwAAEkJHwBAUsIHAJCU8AEAJCV8AABJCR8AQFLCBwCQlPABACQlfAAASQkfAEBSwgcAkJTwAQAkJXwAAEkJHwBAUkUPH+3t7ZHJZAb8nH/++cXeDQBQoSaUYtALLrggHn/88bd3MqEkuwEAKlBJUsGECROisbGxFEMDABWuJN/5eP7556OpqSnOOeecuPLKK+Oll14qxW4AgApU9DMfCxcujPvuuy9+9Vd/NV599dXYsGFD/MZv/Ebs27cv6uvrB22fy+Uil8v1L3d3d0dERD6fj3w+X9Ta+sbL1hSKOi4D9c1vpc1zsfut1PrqHU91Z2sr6zkfqUrt6fFmuF4djz1dTqU6nvr6uFTvsSORKRQKJT2ajh49GmeddVbccccd8fnPf37Q7e3t7bFhw4ZB6zs6OmLKlCmlLA0AKJLjx4/HmjVroqurKxoaGk65bcnDR0TERRddFEuWLImNGzcOum2oMx/Nzc1x5MiRYYsfrXw+H52dnbH+mZrI9WaKOjZvy9YU4pb5vRU3z/val5e7hFHp6+elS5dGXV1ducuJiIi57Y+Vu4SSqNSeHm+GO8bGY0+XU6mOp75+LvY8d3d3x4wZM0YUPkr+ayhvvPFGvPDCC/HZz352yNuz2Wxks9lB6+vq6krWfLneTOROeAEptUqb50p9sSvlsTJalfR8j0Wl9fR4M9I+HU89XU6l7rViz/Noxir6F07/5E/+JLZv3x4vvvhi/OhHP4rf/d3fjdra2vjMZz5T7F0BABWo6Gc+fvazn8VnPvOZeP311+P9739/XHzxxbF79+54//vfX+xdAQAVqOjh4/777y/2kABAFXFtFwAgKeEDAEhK+AAAkhI+AICkhA8AICnhAwBISvgAAJISPgCApIQPACAp4QMASEr4AACSEj4AgKSEDwAgKeEDAEhK+AAAkhI+AICkhA8AICnhAwBISvgAAJISPgCApIQPACAp4QMASEr4AACSEj4AgKSEDwAgKeEDAEhK+AAAkhI+AICkhA8AICnhAwBISvgAAJISPgCApIQPACAp4QMASEr4AACSEj4AgKSEDwAgKeEDAEhK+AAAkhI+AICkhA8AICnhAwBISvgAAJISPgCApIQPACAp4QMASEr4AACSEj4AgKQmlLsAoHKdfcP3y10CUIGc+QAAkhI+AICkhA8AICnhAwBISvgAAJISPgCApIQPACAp4QMASKpk4WPz5s1x9tlnx6RJk2LhwoXx1FNPlWpXAEAFKUn4eOCBB6KtrS1uvvnmePbZZ2PevHmxfPnyeO2110qxOwCggpQkfNxxxx3xhS98Ia6++ur44Ac/GHfffXdMmTIl/vZv/7YUuwMAKkjRr+3y1ltvxZ49e+LGG2/sX1dTUxNLliyJXbt2Ddo+l8tFLpfrX+7q6oqIiJ///OeRz+eLWls+n4/jx4/HhHxNnOjNFHVs3jahtxDHj/dW3Dy//vrr5S5hVPr6+fXXX4+6urqy1DDh/3rKst/UKrWnx5vhjrHx0NPjSamOr75+LvY8Hzt2LCIiCoXC8DUUba//35EjR+LEiRMxa9asAetnzZoVP/7xjwdtv3HjxtiwYcOg9S0tLcUujYTWlLuAMZjxrXJXwHhWiT093jjGxo9S9vOxY8di6tSpp9ym7Fe1vfHGG6Otra1/ube3N37+85/H9OnTI5Mp7v9hdHd3R3Nzc7z88svR0NBQ1LF5m3lOwzynY67TMM9plGqeC4VCHDt2LJqamobdtujhY8aMGVFbWxuHDx8esP7w4cPR2Ng4aPtsNhvZbHbAuve+973FLmuAhoYGjZ2AeU7DPKdjrtMwz2mUYp6HO+PRp+hfOJ04cWJceOGFsW3btv51vb29sW3btli0aFGxdwcAVJiSfOzS1tYWa9eujfnz58eCBQvizjvvjJ6enrj66qtLsTsAoIKUJHz8/u//fvzP//xP3HTTTXHo0KH4yEc+Eo8++uigL6Gmls1m4+abbx70MQ/FZZ7TMM/pmOs0zHMa42GeM4WR/E4MAECRuLYLAJCU8AEAJCV8AABJCR8AQFKnTfjYvHlznH322TFp0qRYuHBhPPXUU+Uuqeps3LgxLrrooqivr4+ZM2fGqlWrYv/+/eUuq+rddtttkclkYt26deUuper893//d/zBH/xBTJ8+PSZPnhwf+tCH4plnnil3WVXlxIkTsX79+mhpaYnJkyfHueeeG7fccsuIrg/Cqe3YsSNWrlwZTU1Nkclk4sEHHxxwe6FQiJtuuilmz54dkydPjiVLlsTzzz+fpLbTInw88MAD0dbWFjfffHM8++yzMW/evFi+fHm89tpr5S6tqmzfvj1aW1tj9+7d0dnZGfl8PpYtWxY9PafHxcfK4emnn46/+qu/ig9/+MPlLqXq/O///m8sXrw46urq4pFHHon//M//jG9961vxvve9r9ylVZXbb789tmzZEn/xF38R//Vf/xW33357bNq0Kb797W+Xu7SK19PTE/PmzYvNmzcPefumTZvirrvuirvvvjuefPLJOOOMM2L58uXx5ptvlr64wmlgwYIFhdbW1v7lEydOFJqamgobN24sY1XV77XXXitERGH79u3lLqUqHTt2rHDeeecVOjs7C7/5m79ZuO6668pdUlX58pe/XLj44ovLXUbVu+KKKwqf+9znBqz75Cc/WbjyyivLVFF1iojC1q1b+5d7e3sLjY2NhW9+85v9644ePVrIZrOF7373uyWvp+rPfLz11luxZ8+eWLJkSf+6mpqaWLJkSezatauMlVW/rq6uiIiYNm1amSupTq2trXHFFVcM6G2K51/+5V9i/vz58Xu/93sxc+bM+OhHPxp//dd/Xe6yqs7HPvax2LZtW/zkJz+JiIh///d/j507d8aKFSvKXFl1O3jwYBw6dGjA68fUqVNj4cKFSd4by35V21I7cuRInDhxYtBfV501a1b8+Mc/LlNV1a+3tzfWrVsXixcvjrlz55a7nKpz//33x7PPPhtPP/10uUupWj/96U9jy5Yt0dbWFl/5ylfi6aefjj/+4z+OiRMnxtq1a8tdXtW44YYboru7O84///yora2NEydOxNe//vW48sory11aVTt06FBExJDvjX23lVLVhw/Ko7W1Nfbt2xc7d+4sdylV5+WXX47rrrsuOjs7Y9KkSeUup2r19vbG/Pnz4xvf+EZERHz0ox+Nffv2xd133y18FNE//uM/xne+853o6OiICy64IPbu3Rvr1q2LpqYm81zFqv5jlxkzZkRtbW0cPnx4wPrDhw9HY2Njmaqqbtdcc008/PDD8cMf/jDOPPPMcpdTdfbs2ROvvfZa/Nqv/VpMmDAhJkyYENu3b4+77rorJkyYECdOnCh3iVVh9uzZ8cEPfnDAug984APx0ksvlami6vSnf/qnccMNN8SnP/3p+NCHPhSf/exn4/rrr4+NGzeWu7Sq1vf+V673xqoPHxMnTowLL7wwtm3b1r+ut7c3tm3bFosWLSpjZdWnUCjENddcE1u3bo0f/OAH0dLSUu6SqtLll18e//Ef/xF79+7t/5k/f35ceeWVsXfv3qitrS13iVVh8eLFg35V/Cc/+UmcddZZZaqoOh0/fjxqaga+FdXW1kZvb2+ZKjo9tLS0RGNj44D3xu7u7njyySeTvDeeFh+7tLW1xdq1a2P+/PmxYMGCuPPOO6OnpyeuvvrqcpdWVVpbW6OjoyMeeuihqK+v7//ccOrUqTF58uQyV1c96uvrB32P5owzzojp06f7fk0RXX/99fGxj30svvGNb8SnPvWpeOqpp+Kee+6Je+65p9ylVZWVK1fG17/+9ZgzZ05ccMEF8W//9m9xxx13xOc+97lyl1bx3njjjThw4ED/8sGDB2Pv3r0xbdq0mDNnTqxbty5uvfXWOO+886KlpSXWr18fTU1NsWrVqtIXV/Lfpxknvv3tbxfmzJlTmDhxYmHBggWF3bt3l7ukqhMRQ/7ce++95S6t6vlV29L43ve+V5g7d24hm80Wzj///MI999xT7pKqTnd3d+G6664rzJkzpzBp0qTCOeecU/izP/uzQi6XK3dpFe+HP/zhkK/Ja9euLRQKv/h12/Xr1xdmzZpVyGazhcsvv7ywf//+JLVlCgV/Rg4ASKfqv/MBAIwvwgcAkJTwAQAkJXwAAEkJHwBAUsIHAJCU8AEAJCV8AABJCR8AQFLCBwCQlPABACQlfAAASf0/UcLpHfoFUcYAAAAASUVORK5CYII=;" vertex="1" parent="1">
                    <mxGeometry x="120" y="270" width="543" height="413" as="geometry"/>
                </mxCell>
                <mxCell id="3" value="&lt;font style=&quot;font-size: 15px;&quot;&gt;Time (in seconds)&lt;/font&gt;" style="text;html=1;align=center;verticalAlign=middle;whiteSpace=wrap;rounded=0;" vertex="1" parent="1">
                    <mxGeometry x="120" y="683" width="540" height="30" as="geometry"/>
                </mxCell>
                <mxCell id="4" value="&lt;font style=&quot;font-size: 15px;&quot;&gt;Number of responses&lt;/font&gt;" style="text;html=1;align=center;verticalAlign=middle;whiteSpace=wrap;rounded=0;direction=north;textDirection=vertical-lr;rotation=0;" vertex="1" parent="1">
                    <mxGeometry x="90" y="270" width="30" height="420" as="geometry"/>
                </mxCell>
                <mxCell id="6" value="&lt;font&gt;Number of responses during simulated crashes&lt;/font&gt;" style="text;html=1;align=center;verticalAlign=middle;whiteSpace=wrap;rounded=0;fontSize=19;" vertex="1" parent="1">
                    <mxGeometry x="120" y="240" width="540" height="30" as="geometry"/>
                </mxCell>
            </root>
        </mxGraphModel>
    </diagram>
</mxfile>